<svg xmlns="http://www.w3.org/2000/svg" viewBox="0 0 168.53 168.03"><defs><style>.cls-1{fill:#ccc;fill-rule:evenodd;}</style></defs><g id="cdr_layer2"><polygon class="cls-1" points="0 22.39 57.13 22.39 57.13 34.13 11.74 34.13 11.74 156.29 0 156.29 0 22.39"/><polygon class="cls-1" points="168.53 145.19 111.41 145.19 111.41 133.46 156.8 133.46 156.8 11.74 168.53 11.74 168.53 145.19"/><polygon class="cls-1" points="22.39 168.03 22.39 110.9 34.13 110.9 34.13 156.29 156.8 156.29 156.8 168.03 22.39 168.03"/><polygon class="cls-1" points="145.59 0 145.59 57.13 133.86 57.13 133.86 11.74 11.74 11.74 11.74 0 145.59 0"/><path class="cls-1" d="M962.32-585.24c2.92,8.58,3.83,17.88-5.59,21.66-16.26,6.52-25.81-12.93-18.45-24.38,7.91-12,24.6-12.77,38.75-5.95,16.77,8.08,31.33,25.22,29.7,39.69-.25,2.23-2.67,4.28-3.5,2.61C993.64-570.87,982.22-583.09,962.32-585.24Z" transform="translate(-875.87 623.91)"/><path class="cls-1" d="M957.78-493.53c-2.92-8.58-3.83-17.88,5.59-21.66,16.27-6.52,25.81,12.93,18.45,24.38-7.9,12-24.6,12.77-38.74,5.95-16.77-8.08-31.33-25.22-29.71-39.69.25-2.23,2.67-4.28,3.5-2.61C926.46-507.9,937.88-495.68,957.78-493.53Z" transform="translate(-875.87 623.91)"/></g></svg>